<svg width="190" height="60" viewBox="0 0 190 60" fill="none" xmlns="http://www.w3.org/2000/svg">
<rect width="190" height="60" rx="7" fill="black"/>
<path d="M68.7904 39.7321H61.6903L59.9852 44.7668H56.9779L63.703 26.1398H66.8275L73.5526 44.7668H70.494L68.7904 39.7321ZM62.4256 37.4089H68.0536L65.2792 29.2379H65.2016L62.4256 37.4089Z" fill="white"/>
<path d="M88.0765 37.9775C88.0765 42.1977 85.8177 44.9091 82.409 44.9091C81.5455 44.9543 80.6868 44.7554 79.9311 44.3352C79.1754 43.915 78.5533 43.2905 78.1361 42.5331H78.0716V49.2597H75.284V31.1865H77.9823V33.4453H78.0335C78.47 32.6916 79.1026 32.0703 79.864 31.6475C80.6255 31.2247 81.4873 31.0163 82.3578 31.0444C85.8045 31.0444 88.0765 33.769 88.0765 37.9775ZM85.2113 37.9775C85.2113 35.228 83.7904 33.4204 81.6224 33.4204C79.4925 33.4204 78.0599 35.2661 78.0599 37.9775C78.0599 40.7138 79.4925 42.5463 81.6224 42.5463C83.7904 42.5463 85.2113 40.7519 85.2113 37.9775Z" fill="white"/>
<path d="M103.024 37.9775C103.024 42.1977 100.765 44.9091 97.3563 44.9091C96.4928 44.9543 95.634 44.7554 94.8784 44.3352C94.1227 43.915 93.5006 43.2904 93.0833 42.5331H93.0188V49.2597H90.2312V31.1865H92.9295V33.4452H92.9807C93.4172 32.6915 94.0498 32.0703 94.8112 31.6475C95.5727 31.2247 96.4345 31.0163 97.305 31.0444C100.752 31.0444 103.024 33.769 103.024 37.9775ZM100.159 37.9775C100.159 35.228 98.7376 33.4203 96.5696 33.4203C94.4398 33.4203 93.0071 35.266 93.0071 37.9775C93.0071 40.7138 94.4398 42.5463 96.5696 42.5463C98.7376 42.5463 100.159 40.7519 100.159 37.9775H100.159Z" fill="white"/>
<path d="M112.903 39.5769C113.109 41.424 114.904 42.6369 117.356 42.6369C119.705 42.6369 121.396 41.424 121.396 39.7584C121.396 38.3126 120.376 37.4469 117.962 36.8537L115.548 36.2721C112.128 35.4459 110.54 33.8463 110.54 31.2506C110.54 28.0367 113.341 25.8292 117.318 25.8292C121.254 25.8292 123.952 28.0367 124.043 31.2506H121.229C121.06 29.3917 119.524 28.2697 117.278 28.2697C115.033 28.2697 113.496 29.4049 113.496 31.0573C113.496 32.3742 114.477 33.1491 116.878 33.7423L118.93 34.2462C122.752 35.15 124.34 36.6852 124.34 39.4097C124.34 42.8946 121.564 45.0772 117.149 45.0772C113.018 45.0772 110.229 42.9459 110.049 39.5767L112.903 39.5769Z" fill="white"/>
<path d="M130.356 27.9723V31.1862H132.939V33.3937H130.356V40.8805C130.356 42.0436 130.873 42.5856 132.009 42.5856C132.315 42.5802 132.621 42.5587 132.926 42.5211V44.7154C132.415 44.8108 131.896 44.854 131.377 44.8443C128.628 44.8443 127.555 43.8116 127.555 41.1778V33.3937H125.581V31.1862H127.555V27.9723H130.356Z" fill="white"/>
<path d="M134.434 37.9772C134.434 33.7042 136.951 31.0192 140.875 31.0192C144.813 31.0192 147.318 33.7042 147.318 37.9772C147.318 42.2618 144.826 44.9352 140.875 44.9352C136.926 44.9352 134.434 42.2618 134.434 37.9772ZM144.477 37.9772C144.477 35.046 143.134 33.316 140.875 33.316C138.617 33.316 137.275 35.0592 137.275 37.9772C137.275 40.92 138.617 42.6368 140.875 42.6368C143.134 42.6368 144.477 40.92 144.477 37.9772H144.477Z" fill="white"/>
<path d="M149.616 31.1863H152.275V33.4978H152.339C152.519 32.7759 152.942 32.1379 153.537 31.6911C154.132 31.2443 154.862 31.0158 155.606 31.0442C155.927 31.0431 156.247 31.078 156.561 31.1482V33.7557C156.155 33.6317 155.732 33.5748 155.308 33.5872C154.903 33.5708 154.5 33.6422 154.125 33.7965C153.75 33.9508 153.413 34.1844 153.137 34.4813C152.861 34.7781 152.653 35.1312 152.526 35.5162C152.4 35.9012 152.358 36.309 152.404 36.7117V44.7669H149.616L149.616 31.1863Z" fill="white"/>
<path d="M169.413 40.778C169.038 43.2433 166.638 44.9352 163.566 44.9352C159.615 44.9352 157.163 42.2882 157.163 38.0416C157.163 33.7819 159.628 31.0192 163.449 31.0192C167.206 31.0192 169.569 33.6002 169.569 37.7179V38.673H159.977V38.8414C159.933 39.3412 159.995 39.8447 160.16 40.3185C160.326 40.7922 160.59 41.2254 160.935 41.5892C161.281 41.9531 161.7 42.2392 162.165 42.4287C162.629 42.6181 163.129 42.7066 163.63 42.6881C164.289 42.7498 164.95 42.5973 165.515 42.2531C166.08 41.9089 166.519 41.3916 166.766 40.7779L169.413 40.778ZM159.99 36.7247H166.78C166.805 36.2753 166.737 35.8256 166.579 35.4038C166.422 34.982 166.18 34.5972 165.867 34.2735C165.554 33.9499 165.178 33.6944 164.762 33.5231C164.346 33.3517 163.899 33.2683 163.449 33.278C162.995 33.2752 162.545 33.3625 162.125 33.5346C161.704 33.7067 161.323 33.9603 161.001 34.2807C160.68 34.6012 160.425 34.9821 160.251 35.4016C160.078 35.8211 159.989 36.2708 159.99 36.7247V36.7247Z" fill="white"/>
<path d="M62.6623 20.9922C61.816 20.9922 61.0817 20.7975 60.4597 20.4082C59.8418 20.0189 59.3658 19.4666 59.0314 18.7515C58.6971 18.0363 58.53 17.1857 58.53 16.1997V16.187C58.53 15.1968 58.6971 14.3441 59.0314 13.6289C59.3658 12.9137 59.8418 12.3615 60.4597 11.9722C61.0775 11.5828 61.8117 11.3882 62.6623 11.3882C63.3352 11.3882 63.9424 11.5215 64.4841 11.7881C65.03 12.0505 65.4764 12.4144 65.8234 12.8799C66.1747 13.3454 66.3884 13.8807 66.4646 14.4858V14.5239H65.049L65.0427 14.4985C64.958 14.1219 64.8036 13.7961 64.5793 13.521C64.355 13.2459 64.08 13.0322 63.7541 12.8799C63.4283 12.7275 63.0643 12.6514 62.6623 12.6514C62.1164 12.6514 61.6425 12.7952 61.2404 13.083C60.8426 13.3708 60.5337 13.7791 60.3137 14.3081C60.0979 14.8328 59.9899 15.4591 59.9899 16.187V16.1997C59.9899 16.9191 60.0979 17.5433 60.3137 18.0723C60.5337 18.6012 60.8426 19.0096 61.2404 19.2974C61.6425 19.5851 62.1185 19.729 62.6687 19.729C63.0707 19.729 63.4346 19.6613 63.7605 19.5259C64.0905 19.3905 64.3656 19.1979 64.5856 18.9482C64.8057 18.6943 64.9559 18.396 65.0363 18.0532L65.049 18.0278H66.4709L66.4646 18.0596C66.3757 18.6478 66.1599 19.1619 65.8171 19.6021C65.4743 20.0422 65.0342 20.3849 64.4968 20.6304C63.9593 20.8716 63.3479 20.9922 62.6623 20.9922Z" fill="#FEFEFE"/>
<path d="M71.0983 20.9033C70.4255 20.9033 69.8436 20.7594 69.3527 20.4717C68.8661 20.1839 68.4916 19.7734 68.2292 19.2402C67.9668 18.7028 67.8356 18.0659 67.8356 17.3296V17.3169C67.8356 16.5763 67.9668 15.9395 68.2292 15.4062C68.4958 14.873 68.8724 14.4626 69.3591 14.1748C69.85 13.887 70.4297 13.7432 71.0983 13.7432C71.7712 13.7432 72.3509 13.887 72.8376 14.1748C73.3243 14.4583 73.6988 14.8688 73.9611 15.4062C74.2277 15.9395 74.361 16.5763 74.361 17.3169V17.3296C74.361 18.0659 74.2277 18.7028 73.9611 19.2402C73.6988 19.7734 73.3243 20.1839 72.8376 20.4717C72.3552 20.7594 71.7754 20.9033 71.0983 20.9033ZM71.0983 19.748C71.4919 19.748 71.8262 19.6528 72.1013 19.4624C72.3763 19.2677 72.5858 18.9906 72.7297 18.6309C72.8736 18.2712 72.9455 17.8374 72.9455 17.3296V17.3169C72.9455 16.8049 72.8736 16.369 72.7297 16.0093C72.5858 15.6496 72.3763 15.3745 72.1013 15.1841C71.8262 14.9894 71.4919 14.8921 71.0983 14.8921C70.7048 14.8921 70.3705 14.9894 70.0954 15.1841C69.8203 15.3745 69.6088 15.6496 69.4606 16.0093C69.3168 16.369 69.2448 16.8049 69.2448 17.3169V17.3296C69.2448 17.8374 69.3168 18.2712 69.4606 18.6309C69.6088 18.9906 69.8203 19.2677 70.0954 19.4624C70.3705 19.6528 70.7048 19.748 71.0983 19.748Z" fill="#FEFEFE"/>
<path d="M75.9987 20.77V13.8765H77.3762V14.9175H77.4841C77.6534 14.5493 77.903 14.2616 78.2331 14.0542C78.5632 13.8468 78.98 13.7432 79.4836 13.7432C80.258 13.7432 80.8505 13.9653 81.2609 14.4097C81.6714 14.854 81.8767 15.4867 81.8767 16.3076V20.77H80.4929V16.6313C80.4929 16.0558 80.3723 15.6284 80.1311 15.3491C79.8941 15.0656 79.5217 14.9238 79.0139 14.9238C78.6796 14.9238 78.3897 14.9979 78.1442 15.146C77.8988 15.2899 77.7084 15.4972 77.573 15.7681C77.4418 16.0347 77.3762 16.3542 77.3762 16.7266V20.77H75.9987Z" fill="#FEFEFE"/>
<path d="M86.301 20.9033C85.7466 20.9033 85.2642 20.8229 84.8537 20.6621C84.4432 20.4971 84.1174 20.2707 83.8762 19.9829C83.635 19.6909 83.4932 19.3524 83.4509 18.9673V18.9546H84.8347V18.9673C84.9235 19.2254 85.0928 19.4349 85.3425 19.5957C85.5922 19.7565 85.9222 19.8369 86.3327 19.8369C86.6162 19.8369 86.8638 19.7967 87.0754 19.7163C87.2912 19.6359 87.4605 19.5238 87.5832 19.3799C87.7059 19.236 87.7673 19.071 87.7673 18.8848V18.8721C87.7673 18.6562 87.6805 18.4743 87.507 18.3262C87.3335 18.1781 87.0479 18.0575 86.6501 17.9644L85.5456 17.7104C85.114 17.6131 84.7564 17.4798 84.4729 17.3105C84.1893 17.1413 83.9799 16.9339 83.8444 16.6885C83.709 16.4388 83.6413 16.1468 83.6413 15.8125V15.8062C83.6413 15.4041 83.7556 15.0487 83.9841 14.7397C84.2126 14.4266 84.5279 14.1833 84.9299 14.0098C85.3361 13.832 85.7995 13.7432 86.32 13.7432C86.8448 13.7432 87.3018 13.8257 87.6911 13.9907C88.0847 14.1515 88.3957 14.3758 88.6242 14.6636C88.8527 14.9471 88.9882 15.2772 89.0305 15.6538V15.6602H87.7102V15.6475C87.6467 15.4062 87.4943 15.2052 87.2531 15.0444C87.0161 14.8836 86.703 14.8032 86.3137 14.8032C86.064 14.8032 85.8418 14.8434 85.6472 14.9238C85.4525 15 85.298 15.1079 85.1838 15.2476C85.0738 15.383 85.0188 15.5438 85.0188 15.73V15.7427C85.0188 15.8866 85.0547 16.0135 85.1267 16.1235C85.2028 16.2293 85.3213 16.3245 85.4821 16.4092C85.6429 16.4896 85.8503 16.5615 86.1042 16.625L87.2023 16.8726C87.8625 17.0291 88.3534 17.2555 88.675 17.5518C89.0008 17.848 89.1638 18.2458 89.1638 18.7451V18.7578C89.1638 19.181 89.0389 19.5555 88.7893 19.8813C88.5396 20.203 88.1989 20.4548 87.7673 20.6367C87.3399 20.8145 86.8511 20.9033 86.301 20.9033Z" fill="#FEFEFE"/>
<path d="M90.8205 20.77V13.8765H92.2043V20.77H90.8205ZM91.9821 12.9243H90.8903L92.0075 10.7407H93.4802L91.9821 12.9243Z" fill="#FEFEFE"/>
<path d="M97.1174 23.2012C96.5334 23.2012 96.0256 23.1208 95.5939 22.96C95.1665 22.7992 94.828 22.5749 94.5783 22.2871C94.3286 21.9993 94.1763 21.665 94.1213 21.2842L94.1276 21.2715H95.5241L95.5305 21.2842C95.5897 21.5212 95.7569 21.7158 96.0319 21.8682C96.307 22.0205 96.6752 22.0967 97.1364 22.0967C97.7035 22.0967 98.1457 21.9676 98.4631 21.7095C98.7847 21.4513 98.9455 21.0895 98.9455 20.624V19.272H98.8376C98.7022 19.5174 98.5287 19.729 98.3171 19.9067C98.1055 20.0802 97.8643 20.2114 97.5935 20.3003C97.3226 20.3892 97.0285 20.4336 96.7111 20.4336C96.1272 20.4336 95.6193 20.2939 95.1877 20.0146C94.7603 19.7311 94.4302 19.3418 94.1975 18.8467C93.9689 18.3473 93.8547 17.7739 93.8547 17.1265V17.1138C93.8547 16.4578 93.9711 15.8781 94.2038 15.3745C94.4366 14.8667 94.7688 14.471 95.2004 14.1875C95.632 13.8997 96.1462 13.7559 96.7429 13.7559C97.0645 13.7559 97.3586 13.8066 97.6252 13.9082C97.896 14.0098 98.1351 14.1536 98.3425 14.3398C98.5498 14.526 98.7212 14.7482 98.8566 15.0063H98.9392V13.8765H100.317V20.6304C100.317 21.1509 100.185 21.6037 99.923 21.9888C99.6649 22.3739 99.2967 22.6722 98.8186 22.8838C98.3404 23.0954 97.7733 23.2012 97.1174 23.2012ZM97.0983 19.291C97.4877 19.291 97.822 19.2 98.1013 19.0181C98.3806 18.8319 98.5943 18.5758 98.7424 18.25C98.8947 17.9242 98.9709 17.5475 98.9709 17.1201V17.1074C98.9709 16.6842 98.8947 16.3076 98.7424 15.9775C98.5943 15.6475 98.3806 15.3893 98.1013 15.2031C97.822 15.0169 97.4877 14.9238 97.0983 14.9238C96.709 14.9238 96.3768 15.0169 96.1018 15.2031C95.8309 15.3893 95.6236 15.6475 95.4797 15.9775C95.3358 16.3034 95.2639 16.68 95.2639 17.1074V17.1201C95.2639 17.5475 95.3358 17.9242 95.4797 18.25C95.6236 18.5758 95.8309 18.8319 96.1018 19.0181C96.3768 19.2 96.709 19.291 97.0983 19.291Z" fill="#FEFEFE"/>
<path d="M104.601 20.9033C104.085 20.9033 103.649 20.8039 103.294 20.605C102.942 20.4019 102.678 20.1099 102.5 19.729C102.327 19.3439 102.24 18.8805 102.24 18.3389V13.8765H103.617V18.0151C103.617 18.5822 103.73 19.0075 103.954 19.291C104.178 19.5745 104.544 19.7163 105.052 19.7163C105.323 19.7163 105.564 19.6761 105.776 19.5957C105.987 19.5111 106.165 19.3905 106.309 19.2339C106.453 19.0773 106.558 18.889 106.626 18.6689C106.698 18.4489 106.734 18.1992 106.734 17.9199V13.8765H108.118V20.77H106.734V19.729H106.633C106.522 19.9744 106.372 20.186 106.182 20.3638C105.991 20.5373 105.763 20.6706 105.496 20.7637C105.234 20.8568 104.936 20.9033 104.601 20.9033Z" fill="#FEFEFE"/>
<path d="M112.993 20.9033C112.32 20.9033 111.742 20.7594 111.26 20.4717C110.778 20.1797 110.405 19.7671 110.143 19.2339C109.885 18.7007 109.756 18.0701 109.756 17.3423V17.3359C109.756 16.6165 109.885 15.9881 110.143 15.4507C110.405 14.9132 110.773 14.4943 111.247 14.1938C111.725 13.8934 112.284 13.7432 112.923 13.7432C113.566 13.7432 114.119 13.887 114.58 14.1748C115.045 14.4626 115.403 14.8667 115.653 15.3872C115.902 15.9035 116.027 16.5086 116.027 17.2026V17.6851H110.454V16.7012H115.342L114.681 17.6152V17.063C114.681 16.5721 114.605 16.1659 114.453 15.8442C114.305 15.5184 114.099 15.2751 113.837 15.1143C113.575 14.9535 113.272 14.873 112.929 14.873C112.587 14.873 112.28 14.9577 112.009 15.127C111.742 15.292 111.531 15.5374 111.374 15.8633C111.222 16.1891 111.146 16.589 111.146 17.063V17.6152C111.146 18.068 111.222 18.4552 111.374 18.7769C111.527 19.0985 111.742 19.3439 112.022 19.5132C112.305 19.6825 112.64 19.7671 113.025 19.7671C113.321 19.7671 113.575 19.7269 113.786 19.6465C114.002 19.5618 114.178 19.4582 114.313 19.3354C114.453 19.2127 114.548 19.0921 114.599 18.9736L114.624 18.9229H115.957L115.945 18.98C115.885 19.2085 115.782 19.437 115.633 19.6655C115.485 19.8898 115.289 20.0951 115.043 20.2812C114.802 20.4674 114.51 20.6177 114.167 20.7319C113.829 20.8462 113.437 20.9033 112.993 20.9033Z" fill="#FEFEFE"/>
<path d="M117.728 20.77V11.1724H119.106V20.77H117.728Z" fill="#FEFEFE"/>
<path d="M124.076 20.9033C123.403 20.9033 122.821 20.7594 122.33 20.4717C121.844 20.1839 121.469 19.7734 121.207 19.2402C120.944 18.7028 120.813 18.0659 120.813 17.3296V17.3169C120.813 16.5763 120.944 15.9395 121.207 15.4062C121.473 14.873 121.85 14.4626 122.337 14.1748C122.828 13.887 123.407 13.7432 124.076 13.7432C124.749 13.7432 125.328 13.887 125.815 14.1748C126.302 14.4583 126.676 14.8688 126.939 15.4062C127.205 15.9395 127.339 16.5763 127.339 17.3169V17.3296C127.339 18.0659 127.205 18.7028 126.939 19.2402C126.676 19.7734 126.302 20.1839 125.815 20.4717C125.333 20.7594 124.753 20.9033 124.076 20.9033ZM124.076 19.748C124.469 19.748 124.804 19.6528 125.079 19.4624C125.354 19.2677 125.563 18.9906 125.707 18.6309C125.851 18.2712 125.923 17.8374 125.923 17.3296V17.3169C125.923 16.8049 125.851 16.369 125.707 16.0093C125.563 15.6496 125.354 15.3745 125.079 15.1841C124.804 14.9894 124.469 14.8921 124.076 14.8921C123.682 14.8921 123.348 14.9894 123.073 15.1841C122.798 15.3745 122.586 15.6496 122.438 16.0093C122.294 16.369 122.222 16.8049 122.222 17.3169V17.3296C122.222 17.8374 122.294 18.2712 122.438 18.6309C122.586 18.9906 122.798 19.2677 123.073 19.4624C123.348 19.6528 123.682 19.748 124.076 19.748Z" fill="#FEFEFE"/>
<path d="M135.413 20.9033C134.74 20.9033 134.162 20.7594 133.68 20.4717C133.197 20.1797 132.825 19.7671 132.563 19.2339C132.305 18.7007 132.175 18.0701 132.175 17.3423V17.3359C132.175 16.6165 132.305 15.9881 132.563 15.4507C132.825 14.9132 133.193 14.4943 133.667 14.1938C134.145 13.8934 134.704 13.7432 135.343 13.7432C135.986 13.7432 136.538 13.887 137 14.1748C137.465 14.4626 137.823 14.8667 138.072 15.3872C138.322 15.9035 138.447 16.5086 138.447 17.2026V17.6851H132.874V16.7012H137.761L137.101 17.6152V17.063C137.101 16.5721 137.025 16.1659 136.873 15.8442C136.725 15.5184 136.519 15.2751 136.257 15.1143C135.995 14.9535 135.692 14.873 135.349 14.873C135.007 14.873 134.7 14.9577 134.429 15.127C134.162 15.292 133.951 15.5374 133.794 15.8633C133.642 16.1891 133.566 16.589 133.566 17.063V17.6152C133.566 18.068 133.642 18.4552 133.794 18.7769C133.946 19.0985 134.162 19.3439 134.442 19.5132C134.725 19.6825 135.059 19.7671 135.445 19.7671C135.741 19.7671 135.995 19.7269 136.206 19.6465C136.422 19.5618 136.598 19.4582 136.733 19.3354C136.873 19.2127 136.968 19.0921 137.019 18.9736L137.044 18.9229H138.377L138.364 18.98C138.305 19.2085 138.202 19.437 138.053 19.6655C137.905 19.8898 137.709 20.0951 137.463 20.2812C137.222 20.4674 136.93 20.6177 136.587 20.7319C136.249 20.8462 135.857 20.9033 135.413 20.9033Z" fill="#FEFEFE"/>
<path d="M140.085 20.77V13.8765H141.462V14.9175H141.57C141.739 14.5493 141.989 14.2616 142.319 14.0542C142.649 13.8468 143.066 13.7432 143.57 13.7432C144.344 13.7432 144.936 13.9653 145.347 14.4097C145.757 14.854 145.963 15.4867 145.963 16.3076V20.77H144.579V16.6313C144.579 16.0558 144.458 15.6284 144.217 15.3491C143.98 15.0656 143.608 14.9238 143.1 14.9238C142.765 14.9238 142.476 14.9979 142.23 15.146C141.985 15.2899 141.794 15.4972 141.659 15.7681C141.528 16.0347 141.462 16.3542 141.462 16.7266V20.77H140.085Z" fill="#FEFEFE"/>
<path d="M154.316 20.9033C153.643 20.9033 153.066 20.7594 152.583 20.4717C152.101 20.1797 151.728 19.7671 151.466 19.2339C151.208 18.7007 151.079 18.0701 151.079 17.3423V17.3359C151.079 16.6165 151.208 15.9881 151.466 15.4507C151.728 14.9132 152.097 14.4943 152.571 14.1938C153.049 13.8934 153.607 13.7432 154.246 13.7432C154.89 13.7432 155.442 13.887 155.903 14.1748C156.369 14.4626 156.726 14.8667 156.976 15.3872C157.225 15.9035 157.35 16.5086 157.35 17.2026V17.6851H151.777V16.7012H156.665L156.005 17.6152V17.063C156.005 16.5721 155.928 16.1659 155.776 15.8442C155.628 15.5184 155.423 15.2751 155.16 15.1143C154.898 14.9535 154.595 14.873 154.253 14.873C153.91 14.873 153.603 14.9577 153.332 15.127C153.066 15.292 152.854 15.5374 152.697 15.8633C152.545 16.1891 152.469 16.589 152.469 17.063V17.6152C152.469 18.068 152.545 18.4552 152.697 18.7769C152.85 19.0985 153.066 19.3439 153.345 19.5132C153.628 19.6825 153.963 19.7671 154.348 19.7671C154.644 19.7671 154.898 19.7269 155.11 19.6465C155.325 19.5618 155.501 19.4582 155.636 19.3354C155.776 19.2127 155.871 19.0921 155.922 18.9736L155.947 18.9229H157.28L157.268 18.98C157.209 19.2085 157.105 19.437 156.957 19.6655C156.809 19.8898 156.612 20.0951 156.366 20.2812C156.125 20.4674 155.833 20.6177 155.49 20.7319C155.152 20.8462 154.76 20.9033 154.316 20.9033Z" fill="#FEFEFE"/>
<path d="M159.051 20.77V11.1724H160.429V20.77H159.051Z" fill="#FEFEFE"/>
<path d="M42.8303 29.752C42.8466 28.4886 43.1822 27.2498 43.8059 26.1509C44.4296 25.052 45.3211 24.1287 46.3975 23.467C45.7137 22.4904 44.8116 21.6867 43.7628 21.1197C42.7141 20.5528 41.5476 20.2381 40.356 20.2009C37.8141 19.934 35.3498 21.7219 34.0545 21.7219C32.7341 21.7219 30.7398 20.2273 28.5922 20.2715C27.2031 20.3164 25.8494 20.7203 24.6628 21.444C23.4762 22.1676 22.4973 23.1863 21.8215 24.4008C18.894 29.4693 21.0776 36.9184 23.882 41.0155C25.285 43.0217 26.9248 45.2627 29.0704 45.1832C31.1701 45.0961 31.9542 43.8444 34.4887 43.8444C36.9996 43.8444 37.7353 45.1832 39.9244 45.1327C42.1774 45.0961 43.5969 43.1176 44.9508 41.0923C45.9589 39.6628 46.7346 38.0829 47.2492 36.4111C45.9403 35.8575 44.8233 34.9309 44.0375 33.7467C43.2517 32.5625 42.8318 31.1732 42.8303 29.752Z" fill="white"/>
<path d="M38.6954 17.5065C39.9238 16.0318 40.529 14.1364 40.3824 12.2227C38.5057 12.4198 36.7721 13.3167 35.5271 14.7348C34.9183 15.4276 34.4521 16.2336 34.1551 17.1066C33.858 17.9797 33.7359 18.9028 33.7958 19.823C34.7345 19.8327 35.6632 19.6292 36.5119 19.228C37.3606 18.8267 38.1071 18.2381 38.6954 17.5065Z" fill="white"/>
</svg>
