<svg width="190" height="60" viewBox="0 0 190 60" fill="none" xmlns="http://www.w3.org/2000/svg">
<rect width="190" height="60" rx="7" fill="black"/>
<path d="M95.336 31.3414C92.0502 31.3414 89.3721 33.8393 89.3721 37.2829C89.3721 40.7042 92.0502 43.2244 95.336 43.2244C98.6218 43.2244 101.3 40.7042 101.3 37.2829C101.3 33.8393 98.6218 31.3414 95.336 31.3414ZM95.336 40.8844C93.5352 40.8844 91.9818 39.3994 91.9818 37.2829C91.9818 35.1441 93.5352 33.6814 95.336 33.6814C97.1367 33.6814 98.6888 35.1441 98.6888 37.2829C98.6888 39.398 97.1367 40.8844 95.336 40.8844ZM82.3242 31.3414C79.0384 31.3414 76.3603 33.8393 76.3603 37.2829C76.3603 40.7042 79.0384 43.2244 82.3242 43.2244C85.61 43.2244 88.288 40.7042 88.288 37.2829C88.2894 33.8393 85.61 31.3414 82.3242 31.3414ZM82.3242 40.8844C80.5234 40.8844 78.9713 39.3994 78.9713 37.2829C78.9713 35.1441 80.5248 33.6814 82.3242 33.6814C84.1249 33.6814 85.677 35.1441 85.677 37.2829C85.6784 39.398 84.1249 40.8844 82.3242 40.8844ZM66.848 33.1645V35.6847H72.8803C72.7001 37.1027 72.2279 38.1379 71.5071 38.8587C70.6297 39.7361 69.2565 40.7042 66.848 40.7042C63.1347 40.7042 60.2317 37.7104 60.2317 33.9971C60.2317 30.2839 63.1347 27.29 66.848 27.29C68.8513 27.29 70.314 28.078 71.3939 29.0908L73.1723 27.3124C71.6649 25.8721 69.6616 24.7684 66.848 24.7684C61.7615 24.7684 57.4852 28.9092 57.4852 33.9957C57.4852 39.0823 61.7615 43.223 66.848 43.223C69.5932 43.223 71.6649 42.3233 73.2855 40.6343C74.9507 38.9691 75.469 36.6277 75.469 34.7375C75.469 34.1522 75.4243 33.6115 75.3335 33.1617H66.848V33.1645ZM130.144 35.1217C129.65 33.7932 128.141 31.34 125.058 31.34C121.997 31.34 119.454 33.7485 119.454 37.2815C119.454 40.612 121.974 43.223 125.351 43.223C128.074 43.223 129.65 41.5578 130.302 40.5896L128.276 39.2387C127.601 40.2292 126.678 40.8816 125.351 40.8816C124.022 40.8816 123.078 40.2739 122.47 39.0809L130.415 35.7951L130.144 35.1217ZM122.041 37.1027C121.974 34.8074 123.82 33.6367 125.147 33.6367C126.182 33.6367 127.059 34.1536 127.353 34.8968L122.041 37.1027ZM115.582 42.864H118.193V25.3999H115.582V42.864ZM111.305 32.6686H111.216C110.631 31.9714 109.506 31.34 108.088 31.34C105.117 31.34 102.394 33.951 102.394 37.3039C102.394 40.6344 105.117 43.223 108.088 43.223C109.506 43.223 110.631 42.593 111.216 41.8721H111.305V42.7271C111.305 45 110.09 46.2154 108.131 46.2154C106.533 46.2154 105.543 45.0671 105.137 44.1003L102.865 45.0461C103.517 46.622 105.251 48.5568 108.131 48.5568C111.192 48.5568 113.781 46.7561 113.781 42.368V31.7004H111.305V32.6686ZM108.313 40.8844C106.512 40.8844 105.005 39.377 105.005 37.3053C105.005 35.2125 106.512 33.6814 108.313 33.6814C110.091 33.6814 111.486 35.2111 111.486 37.3053C111.486 39.3756 110.091 40.8844 108.313 40.8844ZM142.374 25.3999H136.127V42.864H138.733V36.2477H142.372C145.261 36.2477 148.101 34.1564 148.101 30.8245C148.101 27.4926 145.263 25.3999 142.374 25.3999ZM142.441 33.8169H138.733V27.8307H142.441C144.389 27.8307 145.496 29.4442 145.496 30.8245C145.496 32.1768 144.389 33.8169 142.441 33.8169ZM158.551 31.3093C156.664 31.3093 154.709 32.1405 153.9 33.9832L156.215 34.9499C156.71 33.9832 157.63 33.6688 158.597 33.6688C159.945 33.6688 161.316 34.4777 161.338 35.9152V36.0954C160.866 35.8258 159.854 35.4207 158.619 35.4207C156.126 35.4207 153.586 36.7912 153.586 39.3533C153.586 41.6905 155.631 43.1951 157.922 43.1951C159.676 43.1951 160.641 42.4086 161.247 41.4879H161.337V42.836H163.853V36.1401C163.853 33.0388 161.539 31.3093 158.551 31.3093ZM158.235 40.8802C157.382 40.8802 156.19 40.4527 156.19 39.398C156.19 38.0499 157.674 37.533 158.953 37.533C160.099 37.533 160.638 37.7802 161.335 38.1169C161.134 39.7347 159.741 40.8802 158.235 40.8802ZM173.02 31.6907L170.032 39.2625H169.942L166.842 31.6907H164.034L168.685 42.2731L166.033 48.1601H168.752L175.92 31.6907H173.02ZM149.54 42.864H152.147V25.3999H149.54V42.864Z" fill="white"/>
<path d="M56.5234 20.1016V11.6482H59.5755C60.4152 11.6482 61.1319 11.8141 61.7255 12.1461C62.3192 12.4781 62.7722 12.9565 63.0846 13.5814C63.401 14.2063 63.5592 14.962 63.5592 15.8485V15.8602C63.5592 16.7546 63.401 17.5181 63.0846 18.1508C62.7722 18.7835 62.3192 19.2678 61.7255 19.6037C61.1358 19.9357 60.4191 20.1016 59.5755 20.1016H56.5234ZM57.8356 18.9651H59.4291C60.0188 18.9651 60.5207 18.8441 60.9347 18.6019C61.3525 18.3598 61.6689 18.0083 61.8837 17.5474C62.1024 17.0866 62.2118 16.53 62.2118 15.8778V15.8661C62.2118 15.2178 62.1004 14.6632 61.8778 14.2024C61.6591 13.7415 61.3428 13.39 60.9288 13.1479C60.5148 12.9057 60.0149 12.7847 59.4291 12.7847H57.8356V18.9651Z" fill="white"/>
<path d="M65.3342 20.1016V11.6482H66.6465V20.1016H65.3342Z" fill="white"/>
<path d="M71.626 20.3067C70.9894 20.3067 70.4348 20.2071 69.9622 20.0079C69.4897 19.8048 69.1167 19.5236 68.8433 19.1643C68.5699 18.805 68.4137 18.3891 68.3747 17.9165L68.3688 17.8403H69.6635L69.6693 17.9048C69.6967 18.1586 69.7963 18.3793 69.9681 18.5668C70.1439 18.7542 70.3782 18.9007 70.6711 19.0061C70.9679 19.1116 71.3057 19.1643 71.6846 19.1643C72.04 19.1643 72.3563 19.1077 72.6336 18.9944C72.9109 18.8812 73.1277 18.7249 73.2839 18.5258C73.444 18.3266 73.5241 18.0981 73.5241 17.8403V17.8345C73.5241 17.5103 73.401 17.2408 73.155 17.026C72.909 16.8112 72.5067 16.6433 71.9482 16.5222L71.0226 16.3289C70.1673 16.1454 69.5444 15.8544 69.1538 15.456C68.7633 15.0538 68.568 14.5402 68.568 13.9153V13.9094C68.5719 13.4213 68.7027 12.9917 68.9605 12.6206C69.2222 12.2496 69.5834 11.9606 70.0443 11.7536C70.5051 11.5466 71.0343 11.4431 71.6319 11.4431C72.2294 11.4431 72.7508 11.5466 73.196 11.7536C73.6451 11.9567 73.9986 12.234 74.2564 12.5855C74.518 12.937 74.6645 13.3334 74.6957 13.7747L74.7016 13.8509H73.4186L73.4069 13.7747C73.3718 13.5443 73.2761 13.3392 73.1199 13.1596C72.9675 12.9799 72.7625 12.8393 72.5047 12.7378C72.2509 12.6323 71.9541 12.5816 71.6143 12.5855C71.2862 12.5855 70.9933 12.6362 70.7355 12.7378C70.4778 12.8354 70.2727 12.978 70.1204 13.1654C69.972 13.3529 69.8978 13.5794 69.8978 13.845V13.8509C69.8978 14.1633 70.0169 14.425 70.2552 14.6359C70.4973 14.8429 70.8898 15.0049 71.4327 15.1221L72.3583 15.3271C72.948 15.4521 73.4264 15.6181 73.7936 15.8251C74.1607 16.0321 74.4282 16.2879 74.5961 16.5925C74.768 16.8933 74.8539 17.2526 74.8539 17.6705V17.6763C74.8539 18.2153 74.7211 18.682 74.4555 19.0764C74.1939 19.467 73.8209 19.7697 73.3366 19.9845C72.8523 20.1993 72.2821 20.3067 71.626 20.3067Z" fill="white"/>
<path d="M77.2382 17.2135V16.1122H79.5464C80.1166 16.1122 80.5579 15.9657 80.8703 15.6728C81.1867 15.376 81.3449 14.9659 81.3449 14.4425V14.4308C81.3449 13.8997 81.1867 13.4877 80.8703 13.1947C80.5579 12.9018 80.1166 12.7554 79.5464 12.7554H77.2382V11.6482H79.8744C80.429 11.6482 80.9153 11.7653 81.3331 11.9997C81.7549 12.2301 82.085 12.5542 82.3232 12.9721C82.5614 13.3861 82.6805 13.8684 82.6805 14.4191V14.4308C82.6805 14.9815 82.5614 15.4677 82.3232 15.8895C82.085 16.3074 81.7549 16.6335 81.3331 16.8679C80.9153 17.0983 80.429 17.2135 79.8744 17.2135H77.2382ZM76.5821 20.1016V11.6482H77.8943V20.1016H76.5821Z" fill="white"/>
<path d="M87.9764 20.3067C87.1563 20.3067 86.4513 20.127 85.8616 19.7677C85.2719 19.4045 84.8188 18.8909 84.5025 18.227C84.1861 17.5631 84.0279 16.78 84.0279 15.8778V15.8661C84.0279 14.9561 84.1881 14.1711 84.5083 13.5111C84.8286 12.8511 85.2836 12.3414 85.8733 11.9821C86.4669 11.6228 87.168 11.4431 87.9764 11.4431C88.7888 11.4431 89.4898 11.6228 90.0795 11.9821C90.6693 12.3414 91.1223 12.853 91.4387 13.5169C91.7589 14.177 91.919 14.96 91.919 15.8661V15.8778C91.919 16.78 91.7609 17.5631 91.4445 18.227C91.1282 18.887 90.6732 19.3986 90.0795 19.7619C89.4898 20.1251 88.7888 20.3067 87.9764 20.3067ZM87.9764 19.1409C88.5076 19.1409 88.9684 19.0061 89.359 18.7367C89.7495 18.4672 90.0502 18.0883 90.2611 17.6002C90.472 17.1081 90.5775 16.534 90.5775 15.8778V15.8661C90.5775 15.2022 90.472 14.6261 90.2611 14.1379C90.0502 13.6497 89.7495 13.2728 89.359 13.0073C88.9684 12.7417 88.5076 12.6089 87.9764 12.6089C87.4453 12.6089 86.9844 12.7417 86.5939 13.0073C86.2072 13.2728 85.9065 13.6497 85.6917 14.1379C85.4769 14.6261 85.3695 15.2022 85.3695 15.8661V15.8778C85.3695 16.534 85.473 17.1081 85.68 17.6002C85.8909 18.0883 86.1896 18.4672 86.5763 18.7367C86.9668 19.0061 87.4336 19.1409 87.9764 19.1409Z" fill="white"/>
<path d="M93.7 20.1016V11.6482H94.8892L99.5524 18.2504L98.656 17.7876H99.318V11.6482H100.601V20.1016H99.4118L94.7427 13.5052L95.6449 13.968H94.9771V20.1016H93.7Z" fill="white"/>
<path d="M102.722 20.1016V11.6482H104.034V20.1016H102.722Z" fill="white"/>
<path d="M106.811 20.1016V19.0296H109.365C109.959 19.0296 110.408 18.9105 110.712 18.6722C111.017 18.434 111.169 18.0883 111.169 17.6353V17.6236C111.169 17.319 111.099 17.0651 110.958 16.862C110.818 16.6589 110.607 16.5066 110.326 16.4051C110.048 16.2996 109.703 16.2469 109.289 16.2469H106.811V15.2451H109.025C109.607 15.2451 110.046 15.1397 110.343 14.9288C110.64 14.714 110.789 14.4015 110.789 13.9915V13.9797C110.789 13.5814 110.654 13.2728 110.384 13.0541C110.115 12.8315 109.736 12.7202 109.248 12.7202H106.811V11.6482H109.558C110.086 11.6482 110.539 11.7341 110.917 11.9059C111.3 12.0778 111.593 12.3219 111.796 12.6382C111.999 12.9506 112.101 13.3217 112.101 13.7513V13.763C112.101 14.0598 112.034 14.3371 111.902 14.5949C111.769 14.8487 111.591 15.0635 111.368 15.2393C111.146 15.415 110.894 15.5263 110.613 15.5732V15.6728C110.996 15.7118 111.329 15.8231 111.615 16.0067C111.9 16.1903 112.122 16.4285 112.282 16.7214C112.443 17.0104 112.523 17.3385 112.523 17.7056V17.7173C112.523 18.2094 112.405 18.6351 112.171 18.9944C111.941 19.3498 111.611 19.6232 111.181 19.8146C110.751 20.0059 110.236 20.1016 109.634 20.1016H106.811ZM106.155 20.1016V11.6482H107.467V20.1016H106.155Z" fill="white"/>
<path d="M114.204 20.1016V11.6482H115.516V18.9651H119.482V20.1016H114.204Z" fill="white"/>
<path d="M121.14 20.1016V11.6482H126.506V12.7847H122.452V15.251H126.289V16.3406H122.452V18.9651H126.506V20.1016H121.14Z" fill="white"/>
<path d="M131.673 20.1016V11.6482H137.039V12.7847H132.985V15.251H136.823V16.3406H132.985V18.9651H137.039V20.1016H131.673Z" fill="white"/>
<path d="M138.938 20.1016V11.6482H140.127L144.79 18.2504L143.894 17.7876H144.556V11.6482H145.839V20.1016H144.649L139.98 13.5052L140.882 13.968H140.215V20.1016H138.938Z" fill="white"/>
<path d="M14.7267 12.407C14.3202 12.8373 14.0799 13.5051 14.0799 14.3698V45.2663C14.0799 46.1324 14.3202 46.7988 14.7267 47.2291L14.8301 47.3297L32.1377 30.022V29.8181V29.6141L14.8301 12.3051L14.7267 12.407Z" fill="url(#paint0_linear_214_7685)"/>
<path d="M37.9074 35.7945L32.1391 30.0234V29.8195V29.6155L37.9088 23.8458L38.0387 23.9199L44.8743 27.8036C46.8273 28.9128 46.8273 30.7275 44.8743 31.8382L38.0387 35.7219L37.9074 35.7945Z" fill="url(#paint1_linear_214_7685)"/>
<path d="M38.0387 35.7191L32.1391 29.8181L14.7267 47.2291C15.3707 47.9109 16.4325 47.9947 17.6297 47.3144L38.0387 35.7191Z" fill="url(#paint2_linear_214_7685)"/>
<path d="M38.0387 23.9171L17.6311 12.3218C16.4339 11.6415 15.3721 11.7267 14.7281 12.407L32.1391 29.8181L38.0387 23.9171Z" fill="url(#paint3_linear_214_7685)"/>
<path opacity="0.2" d="M37.9088 35.5891L17.6311 47.1103C16.4967 47.7543 15.4825 47.7124 14.8315 47.1257L14.7267 47.2305L14.8301 47.331C15.4811 47.9178 16.4953 47.9611 17.6297 47.3157L38.0373 35.7204L37.9088 35.5891Z" fill="black"/>
<path opacity="0.12" d="M14.7267 47.0251C14.3202 46.5948 14.0799 45.927 14.0799 45.0623V45.2662C14.0799 46.131 14.3202 46.7987 14.7267 47.229L14.8315 47.1243L14.7267 47.0251Z" fill="black"/>
<path opacity="0.12" d="M44.8743 31.6314L37.9088 35.5891L38.0387 35.7191L44.8743 31.8354C45.8508 31.2807 46.3384 30.5501 46.3384 29.8195C46.256 30.4802 45.7586 31.1285 44.8743 31.6314Z" fill="black"/>
<path opacity="0.25" d="M17.6297 12.5257L44.8729 28.0047C45.7586 28.5076 46.2546 29.1558 46.337 29.818C46.337 29.0874 45.8494 28.3553 44.8729 27.8007L17.6297 12.3218C15.6767 11.2125 14.0799 12.1332 14.0799 14.3698V14.5752C14.0799 12.3385 15.6781 11.4165 17.6297 12.5257Z" fill="white"/>
<defs>
<linearGradient id="paint0_linear_214_7685" x1="30.6032" y1="14.0441" x2="7.15794" y2="37.4894" gradientUnits="userSpaceOnUse">
<stop stop-color="#00A0FF"/>
<stop offset="0.0066" stop-color="#00A1FF"/>
<stop offset="0.2601" stop-color="#00BEFF"/>
<stop offset="0.5122" stop-color="#00D2FF"/>
<stop offset="0.7604" stop-color="#00DFFF"/>
<stop offset="1" stop-color="#00E3FF"/>
</linearGradient>
<linearGradient id="paint1_linear_214_7685" x1="47.4159" y1="29.8188" x2="13.6124" y2="29.8188" gradientUnits="userSpaceOnUse">
<stop stop-color="#FFE000"/>
<stop offset="0.4087" stop-color="#FFBD00"/>
<stop offset="0.7754" stop-color="#FFA500"/>
<stop offset="1" stop-color="#FF9C00"/>
</linearGradient>
<linearGradient id="paint2_linear_214_7685" x1="34.8324" y1="33.0245" x2="3.03871" y2="64.8183" gradientUnits="userSpaceOnUse">
<stop stop-color="#FF3A44"/>
<stop offset="1" stop-color="#C31162"/>
</linearGradient>
<linearGradient id="paint3_linear_214_7685" x1="10.3432" y1="2.12262" x2="24.5405" y2="16.3198" gradientUnits="userSpaceOnUse">
<stop stop-color="#32A071"/>
<stop offset="0.0685" stop-color="#2DA771"/>
<stop offset="0.4762" stop-color="#15CF74"/>
<stop offset="0.8009" stop-color="#06E775"/>
<stop offset="1" stop-color="#00F076"/>
</linearGradient>
</defs>
</svg>
